# Blender v2.63 (sub 0) OBJ File: 'piramides.blend'
# www.blender.org
mtllib piramides.mtl
o piramide3
v -0.370202 0.005674 -2.166556
v -2.370203 0.005674 -0.166556
v -2.370202 0.005674 -2.166556
v -1.362030 2.005674 -1.176596
vn 0.834712 -0.336406 -0.435957
vn -0.437056 -0.333384 0.835322
vn -0.663717 -0.349193 -0.661428
vn 0.156255 0.976318 0.149541
usemtl plast_verde
s 1
f 1//1 2//2 3//3
f 2//2 4//4 3//3
f 1//1 3//3 4//4
f 1//1 4//4 2//2
o piramide2
v 0.740615 0.195240 -1.074097
v -1.259385 0.195240 0.925903
v -1.259385 0.195240 -1.074098
v -0.251212 2.195240 -0.084137
vn 0.000000 -1.000000 0.000000
vn -0.892963 0.450130 -0.000000
vn 0.000000 0.443611 -0.896219
vn 0.707107 0.000660 0.707107
usemtl plast_vermelho
s off
f 5//5 6//5 7//5
f 6//6 8//6 7//6
f 5//7 7//7 8//7
f 5//8 8//8 6//8
o piramide1
v 2.005674 0.005674 0.005674
v 0.005674 0.005674 2.005673
v 0.005674 0.005674 0.005673
v 1.013846 2.005674 0.995634
vn 0.000000 0.443611 -0.896220
usemtl plast_azul
s off
f 9//5 10//5 11//5
f 10//6 12//6 11//6
f 9//9 11//9 12//9
f 9//8 12//8 10//8
