mtllib textured-box.mtl
o Box
v 1.000000 -1.000000 -1.000000
v 1.000000 -1.000000 1.000000
v -1.000000 -1.000000 1.000000
v -1.000000 -1.000000 -1.000000
v 1.000000 1.000000 -1.000000
v 1.000000 1.000000 1.000000
v -1.000000 1.000000 1.000000
v -1.000000 1.000000 -1.000000
vt 0.000000 0.000000
vt 0.000000 1.000000
vt 1.000000 1.000000
vt 1.000000 0.000000
vn 0.000000 -1.000000 0.000000
vn 0.000000 1.000000 0.000000
vn 1.000000 0.000000 0.000000
vn -0.000000 -0.000000 1.000000
vn -1.000000 -0.000000 -0.000000
vn 0.000000 0.000000 -1.000000
usemtl vart_texture
s off
f 1/4/1 2/3/1 3/2/1 4/1/1
f 5/3/2 8/2/2 7/1/2 6/4/2
f 1/2/3 5/1/3 6/4/3 2/3/3
f 2/4/4 6/3/4 7/2/4 3/1/4
f 3/2/5 7/1/5 8/4/5 4/3/5
f 5/2/6 1/1/6 4/4/6 8/3/6

